<?xml version="1.0" encoding="utf-8"?>
<!-- Generator: Adobe Illustrator 22.1.0, SVG Export Plug-In . SVG Version: 6.00 Build 0)  -->
<svg version="1.1" id="Layer_1" xmlns="http://www.w3.org/2000/svg" xmlns:xlink="http://www.w3.org/1999/xlink" x="0px" y="0px"
	 viewBox="0 0 1000 1000" style="enable-background:new 0 0 1000 1000;" xml:space="preserve">
<g>
	<path d="M506,396.8c6.8-2,12.2-10.3,11.8-17.7c-0.5-10.2-11.9-16.6-29.5-26.6c-10.3-5.8-24-13.4-44.3-17.7c-16-3.4-28.3-3.2-41.3-3
		c-22.5,0.5-41.3,3.8-50.2,5.9c-36.1,8.6-79.5,37.9-109.2,79.7c-7.4,10.5-59.3,85.9-35.4,168.2c4.4,15.1,14.6,50.2,47.2,70.8
		c6.3,4,24.5,15.2,50.2,14.8c24.2-0.4,41-10.8,47.2-14.8c29.1-18.5,39-47.2,41.7-56.2c-0.9,4.8-1.8,11.7-1.2,20
		c0.8,10,2.1,27.7,15.5,39.2c17.2,14.6,41,8,47.2,5.9c5.5-1.8,15.4-5.1,20.7-14.8c3.7-6.8,5.7-18.2,0-23.6c-4-3.7-10.1-3.1-11.8-3
		c-9.6,0.9-11.8,8.2-20.7,8.9c-4,0.3-8.6-0.8-11.7-3.2c-4.7-3.6-7.2-10.3-3.1-38.1c6.3-42.3,11.8-64.9,11.8-64.9
		c8.2-33.7,11.3-43.2,17.7-70.8c4-17.5,7-31.9,8.9-41.3c1.5-7.6-7.3-19.6-16.3-20.4c-8.4-0.8-18.7,8.3-22.1,23.4
		c-1.9,9.5-4.7,22.7-8.9,38.4c-7.7,29.1-15.8,50.1-23.6,70.8c-3.5,9.2-10.1,26.3-20.7,47.2c-8.7,17.3-13,23.1-17.8,28.1
		c-5.4,5.6-16.7,17-35.2,20.8c-4.7,1-17.1,3.4-31.3-1.8c-12-4.4-19.2-11.9-22.4-15.4c-21-23.2-20.3-62.7-20-73.1
		c0.8-22.1,3.1-66,38.5-108.4c10.8-12.9,29.9-35.2,65.2-49.1c11.9-4.7,38.6-15.1,71.2-10.3c12.1,1.8,34.6,5.3,56.3,20.7
		C489.7,391.4,497.7,399.2,506,396.8z"/>
	<g>
		<g>
			<g>
				<path d="M502.9,946c-2.4,1.4-6.2,1.4-8.6,0l-370-220.6c-2.4-1.4-4.3-4.8-4.3-7.6l0.2-49.4c0-2.8,0-7.2,0.1-10l2.1-185.8
					c0-2.7,1.8-3.5,3.8-1.7l36.7,31.8c2.1,1.8,3.7,5.5,3.7,8.3l-2.1,148.6c0,2.7-0.1,7.2-0.1,10l-0.1,23.2c0,2.8,1.9,6.2,4.3,7.6
					l325.8,194.2c2.4,1.4,6.2,1.4,8.6,0l327-192.2c2.4-1.4,4.3-4.8,4.3-7.5l1.2-387.6c0-2.7-1.9-6.2-4.3-7.6L505.5,105.5
					c-2.4-1.4-6.2-1.4-8.6,0l-327,192.2c-2.4,1.4-4.8,4.7-5.3,7.4c0,0-1,5-0.8,12c0.1,1.6,0.2,7.5,1.7,12.5
					c3.5,11.6,14,18.1,21.9,22.9c16.5,10,32.2,12.5,36.6,13.1c40,5.7,80.2-9.8,103-18.6c12.2-4.7,19.3-8.2,21-6
					c3.9,5.1-47.9,55.2-47.9,55.2c-2,1.9-5.7,4.3-8.3,5.3c0,0-39.4,15.1-79.3,6.9c-52-10.8-83.5-52.9-83.5-52.9
					c-1.6-2.2-4.1-5.4-5.4-7c-1.3-1.7-2.4-5.3-2.4-8l0.2-60.6c0-2.7,2-6.1,4.3-7.5L497.1,54c2.4-1.4,6.2-1.4,8.6,0l370,220.6
					c2.4,1.4,4.3,4.8,4.3,7.6l-1.4,438c0,2.8-2,6.1-4.3,7.5L502.9,946z"/>
			</g>
		</g>
	</g>
	<path d="M699.3,448.4c-4.5,7.9-4.9,21.2,3,29.5c8.8,9.3,22.3,6.9,25.9,6.1c0.3-0.1,0.6-0.1,0.7-0.2c0,0,8.7-2.2,16.2-10.3
		c9.4-10.2,11.6-30.7,11.8-32.5c1.1-10.8,3.2-31.8-8.9-53.1c-13.4-23.6-35.6-32.5-50.2-38.4c-26.2-10.5-49-9-63.1-8.1
		c-13.3,0.9-29.8,2.1-49.1,11.1c-21.1,9.9-34.4,24-41.3,32.5c-6.8,8.4-18.5,25-17.7,47.2c0.1,3.8,0.9,15.4,8.9,29.5
		c8.4,14.9,20.7,25.5,82.6,56.1c0,0,35.7,17.6,70.8,44.3c3,2.3,10.2,7.9,14.8,17.7c6.1,13.1,3.8,25.8,3,29.5
		c-3.9,17.4-16.9,27.5-23.6,32.5c-36.9,27.5-87,13.4-103.3,8.9c-23.9-6.7-35-16.2-41.3-23.6c-5.2-6.1-11.4-13.4-11.8-23.6
		c-0.6-16.6,15-23.2,11.8-35.4c-2.2-8.3-11.8-14.6-20.7-14.8c-10.1-0.2-17,7.6-20.7,11.8c-12,13.7-11.9,31.1-11.8,38.4
		c0.2,22,10.4,37.7,14.8,44.3c2,3,9.9,14.4,25.1,25.1c20.6,14.5,40.8,17.8,59,20.7c19.7,3.1,49.4,7.7,85.6-3
		c17.5-5.1,46-13.5,66.4-39.8c4.5-5.8,14.3-18.7,17.7-38.4c1-5.7,4.2-25.8-5.9-47.2c-5.4-11.5-12.4-18.4-20.7-26.6
		c-12.7-12.6-24.6-20.1-35.4-26.6c-24.1-14.4-47.9-26.7-70.8-38.4c-29.7-15.1-42.5-21-47.2-35.4c-3.8-11.5-0.5-22.1,0-23.6
		c4.1-12.6,14-19.3,20.7-23.6c14.5-9.4,28.6-10.8,41.3-11.8c12.4-1,34-2.7,56.1,8.9c9.8,5.1,19.8,10.4,23.3,21.7
		c2.7,8.8,1,19.4-4.2,27C706.5,443.4,702.8,442.2,699.3,448.4z"/>
</g>
</svg>
